<svg width="52" height="52" viewBox="0 0 52 52" fill="none" xmlns="http://www.w3.org/2000/svg">
<path d="M52.0059 17.9995C52.0089 20.993 51.2653 23.9401 49.8423 26.5738C48.4193 29.2075 46.362 31.4447 43.8565 33.083C41.351 34.7212 38.4765 35.7087 35.4932 35.956C32.5099 36.2034 29.512 35.7027 26.7709 34.4995L13.7559 49.5545C13.7259 49.5895 13.6909 49.627 13.6584 49.6595C12.1579 51.16 10.1229 52.0029 8.00091 52.0029C5.87894 52.0029 3.84387 51.16 2.34341 49.6595C0.84295 48.159 0 46.124 0 44.002C0 41.88 0.84295 39.845 2.34341 38.3445C2.37841 38.312 2.41341 38.277 2.45091 38.247L17.5059 25.2345C16.1571 22.149 15.6999 18.7473 16.1863 15.4152C16.6726 12.0831 18.0831 8.95393 20.2576 6.38273C22.4321 3.81154 25.2836 1.90118 28.4888 0.86837C31.6939 -0.164441 35.1243 -0.278371 38.3909 0.539502C38.7276 0.623902 39.0366 0.794499 39.2874 1.03452C39.5383 1.27453 39.7223 1.5757 39.8214 1.9084C39.9205 2.2411 39.9314 2.59388 39.8528 2.93203C39.7743 3.27018 39.609 3.58206 39.3734 3.837L30.0059 13.9995L31.4209 20.587L38.0059 21.9995L48.1684 12.6195C48.4233 12.3839 48.7352 12.2187 49.0734 12.1401C49.4115 12.0616 49.7643 12.0724 50.097 12.1715C50.4297 12.2706 50.7309 12.4547 50.9709 12.7055C51.2109 12.9563 51.3815 13.2653 51.4659 13.602C51.8248 15.0403 52.0062 16.5171 52.0059 17.9995Z" fill="white"/>
</svg>
