<svg width="53" height="53" viewBox="0 0 53 53" fill="none" xmlns="http://www.w3.org/2000/svg">
<path d="M53 4.4148V48.5832C53 49.7546 52.5347 50.878 51.7063 51.7063C50.878 52.5347 49.7546 53 48.5832 53H4.41479C3.54119 52.9996 2.68733 52.7401 1.96119 52.2544C1.23505 51.7687 0.669254 51.0786 0.335353 50.2713C0.00145072 49.4641 -0.085558 48.5759 0.0853302 47.7192C0.256218 46.8624 0.677328 46.0756 1.2954 45.4583L45.4638 1.28988C46.0818 0.673372 46.8686 0.253812 47.7249 0.0841886C48.5812 -0.0854346 49.4686 0.00248594 50.2749 0.336847C51.0813 0.671208 51.7705 1.23701 52.2555 1.96281C52.7405 2.68861 52.9996 3.54186 53 4.4148Z" fill="white"/>
</svg>
