<svg width="70" height="70" viewBox="0 0 70 70" fill="none" xmlns="http://www.w3.org/2000/svg">
<path d="M67.6667 32.6667H60.5587C60.0057 26.6936 57.3811 21.1021 53.1395 16.8605C48.8979 12.6189 43.3064 9.99426 37.3333 9.44125V2.33333C37.3333 1.71449 37.0875 1.121 36.6499 0.683417C36.2123 0.245833 35.6188 0 35 0C34.3812 0 33.7877 0.245833 33.3501 0.683417C32.9125 1.121 32.6667 1.71449 32.6667 2.33333V9.44125C26.6936 9.99426 21.1021 12.6189 16.8605 16.8605C12.6189 21.1021 9.99426 26.6936 9.44125 32.6667H2.33333C1.71449 32.6667 1.121 32.9125 0.683417 33.3501C0.245833 33.7877 0 34.3812 0 35C0 35.6188 0.245833 36.2123 0.683417 36.6499C1.121 37.0875 1.71449 37.3333 2.33333 37.3333H9.44125C9.99426 43.3064 12.6189 48.8979 16.8605 53.1395C21.1021 57.3811 26.6936 60.0057 32.6667 60.5587V67.6667C32.6667 68.2855 32.9125 68.879 33.3501 69.3166C33.7877 69.7542 34.3812 70 35 70C35.6188 70 36.2123 69.7542 36.6499 69.3166C37.0875 68.879 37.3333 68.2855 37.3333 67.6667V60.5587C43.3064 60.0057 48.8979 57.3811 53.1395 53.1395C57.3811 48.8979 60.0057 43.3064 60.5587 37.3333H67.6667C68.2855 37.3333 68.879 37.0875 69.3166 36.6499C69.7542 36.2123 70 35.6188 70 35C70 34.3812 69.7542 33.7877 69.3166 33.3501C68.879 32.9125 68.2855 32.6667 67.6667 32.6667ZM35 56C30.8466 56 26.7865 54.7684 23.333 52.4609C19.8796 50.1534 17.188 46.8736 15.5985 43.0364C14.0091 39.1991 13.5932 34.9767 14.4035 30.9031C15.2138 26.8295 17.2139 23.0877 20.1508 20.1508C23.0877 17.2139 26.8295 15.2138 30.9031 14.4035C34.9767 13.5932 39.1991 14.0091 43.0364 15.5985C46.8736 17.188 50.1534 19.8796 52.4609 23.333C54.7684 26.7865 56 30.8466 56 35C55.9938 40.5676 53.7793 45.9055 49.8424 49.8424C45.9055 53.7793 40.5676 55.9938 35 56ZM46.6667 35C46.6667 37.3074 45.9824 39.5631 44.7005 41.4817C43.4185 43.4002 41.5964 44.8956 39.4646 45.7786C37.3328 46.6616 34.9871 46.8927 32.7239 46.4425C30.4608 45.9923 28.382 44.8812 26.7504 43.2496C25.1188 41.618 24.0077 39.5392 23.5575 37.2761C23.1073 35.0129 23.3384 32.6672 24.2214 30.5354C25.1044 28.4036 26.5998 26.5815 28.5183 25.2995C30.4369 24.0176 32.6926 23.3333 35 23.3333C38.0942 23.3333 41.0617 24.5625 43.2496 26.7504C45.4375 28.9383 46.6667 31.9058 46.6667 35Z" fill="white"/>
</svg>
