<svg width="71" height="63" viewBox="0 0 71 63" fill="none" xmlns="http://www.w3.org/2000/svg">
<path d="M62.8077 8.21739H53.3456L48.693 1.21891C48.4438 0.844171 48.1062 0.53688 47.7103 0.324264C47.3143 0.111648 46.8722 0.000270506 46.4231 0H24.5769C24.1278 0.000270506 23.6857 0.111648 23.2897 0.324264C22.8938 0.53688 22.5562 0.844171 22.307 1.21891L17.651 8.21739H8.19231C6.01957 8.21739 3.93583 9.08315 2.39947 10.6242C0.863116 12.1653 0 14.2554 0 16.4348V54.7826C0 56.962 0.863116 59.0521 2.39947 60.5932C3.93583 62.1342 6.01957 63 8.19231 63H62.8077C64.9804 63 67.0642 62.1342 68.6005 60.5932C70.1369 59.0521 71 56.962 71 54.7826V16.4348C71 14.2554 70.1369 12.1653 68.6005 10.6242C67.0642 9.08315 64.9804 8.21739 62.8077 8.21739ZM47.7885 34.2391C47.7885 36.677 47.0678 39.0601 45.7175 41.0871C44.3672 43.1142 42.448 44.694 40.2026 45.6269C37.9572 46.5599 35.4864 46.804 33.1026 46.3284C30.7189 45.8528 28.5293 44.6788 26.8107 42.955C25.0922 41.2312 23.9218 39.0349 23.4477 36.6438C22.9735 34.2528 23.2169 31.7744 24.1469 29.5221C25.077 27.2698 26.6521 25.3448 28.6729 23.9904C30.6937 22.636 33.0696 21.913 35.5 21.913C38.7591 21.913 41.8847 23.2117 44.1893 25.5233C46.4938 27.8349 47.7885 30.97 47.7885 34.2391Z" fill="white"/>
</svg>
