<svg width="93" height="93" viewBox="0 0 93 93" fill="none" xmlns="http://www.w3.org/2000/svg">
<path d="M46.5 0.59375C37.4206 0.59375 28.5451 3.2861 20.9958 8.33035C13.4466 13.3746 7.56268 20.5442 4.08815 28.9324C0.61361 37.3207 -0.295487 46.5509 1.47582 55.4559C3.24712 64.3608 7.61926 72.5405 14.0394 78.9606C20.4595 85.3807 28.6392 89.7529 37.5441 91.5242C46.4491 93.2955 55.6793 92.3864 64.0675 88.9118C72.4558 85.4373 79.6254 79.5534 84.6696 72.0041C89.7139 64.4549 92.4062 55.5794 92.4062 46.5C92.3934 34.3289 87.5527 22.6599 78.9464 14.0536C70.3401 5.44727 58.6711 0.606603 46.5 0.59375ZM11.907 64.1562H29.9252L37.4291 84.2755C31.9785 82.9544 26.8769 80.4732 22.4724 77.0011C18.068 73.529 14.4642 69.1478 11.907 64.1562ZM46.5 58.8594C45.1032 58.8594 43.7377 58.4452 42.5763 57.6691C41.4149 56.8931 40.5096 55.7901 39.9751 54.4996C39.4405 53.2091 39.3007 51.789 39.5732 50.419C39.8457 49.0491 40.5183 47.7906 41.506 46.8029C42.4938 45.8152 43.7522 45.1426 45.1222 44.8701C46.4922 44.5976 47.9122 44.7374 49.2027 45.272C50.4932 45.8065 51.5962 46.7117 52.3722 47.8732C53.1483 49.0346 53.5625 50.4 53.5625 51.7969C53.5625 53.67 52.8184 55.4663 51.4939 56.7908C50.1695 58.1153 48.3731 58.8594 46.5 58.8594ZM55.5312 84.28L63.0748 64.1562H81.093C78.5323 69.1531 74.9227 73.5381 70.511 77.0112C66.0993 80.4843 60.9895 82.9638 55.5312 84.28ZM46.5 32.375C32.2725 32.3922 18.511 37.4481 7.65624 46.6457V46.5C7.65624 36.198 11.7487 26.3179 19.0333 19.0333C26.3179 11.7487 36.198 7.65625 46.5 7.65625C56.802 7.65625 66.6821 11.7487 73.9667 19.0333C81.2513 26.3179 85.3437 36.198 85.3437 46.5V46.6457C74.489 37.4481 60.7275 32.3922 46.5 32.375Z" fill="white"/>
</svg>
